HIERARCHY
ROOT Root
{
  OFFSET 0.0 0.0 0.0
  CHANNELS 6 Xposition Yposition Zposition Zrotation Yrotation Xrotation
  JOINT Hips
  {
    OFFSET 0.0 100.0 0.0
    CHANNELS 6 Xposition Yposition Zposition Zrotation Yrotation Xrotation
    JOINT Spine1
    {
      OFFSET -0.013727 5.003763 -0.053727
      CHANNELS 3 Zrotation Yrotation Xrotation
      JOINT Spine2
      {
        OFFSET -0.0 7.125301 -0.029825
        CHANNELS 3 Zrotation Yrotation Xrotation
        JOINT Chest
        {
          OFFSET -1e-06 7.550063 -0.815971
          CHANNELS 3 Zrotation Yrotation Xrotation
          JOINT Neck1
          {
            OFFSET -0.181677 26.311295 -0.553348
            CHANNELS 3 Zrotation Yrotation Xrotation
            JOINT Neck2
            {
              OFFSET -3e-06 7.709397 2.302585
              CHANNELS 3 Zrotation Yrotation Xrotation
              JOINT Head
              {
                OFFSET -5e-06 6.128916 1.953709
                CHANNELS 3 Zrotation Yrotation Xrotation
                JOINT HeadEnd
                {
                  OFFSET 0.003598 16.065403 -1.835379
                  CHANNELS 3 Zrotation Yrotation Xrotation
                }
                JOINT Jaw
                {
                  OFFSET 0.002637 0.475592 3.094941
                  CHANNELS 3 Zrotation Yrotation Xrotation
                }
                JOINT LeftEye
                {
                  OFFSET 3.206381 5.380205 7.586883
                  CHANNELS 3 Zrotation Yrotation Xrotation
                }
                JOINT RightEye
                {
                  OFFSET -3.22244 5.361869 7.558234
                  CHANNELS 3 Zrotation Yrotation Xrotation
                }
              }
            }
          }
          JOINT LeftShoulder
          {
            OFFSET 1.621652 23.237164 5.113413
            CHANNELS 3 Zrotation Yrotation Xrotation
            JOINT LeftArm
            {
              OFFSET 14.919846 2e-06 -5.502326
              CHANNELS 3 Zrotation Yrotation Xrotation
              JOINT LeftForeArm
              {
                OFFSET 28.739307 0.0 -0.002588
                CHANNELS 3 Zrotation Yrotation Xrotation
                JOINT LeftHand
                {
                  OFFSET 27.093981 -1e-06 0.002609
                  CHANNELS 3 Zrotation Yrotation Xrotation
                  JOINT LeftHandThumb1
                  {
                    OFFSET 2.276482 -1.392045 3.191413
                    CHANNELS 3 Zrotation Yrotation Xrotation
                    JOINT LeftHandThumb2
                    {
                      OFFSET 4.012836 -1.828127 1.641654
                      CHANNELS 3 Zrotation Yrotation Xrotation
                      JOINT LeftHandThumb3
                      {
                        OFFSET 2.798515 0.0 -3e-06
                        CHANNELS 3 Zrotation Yrotation Xrotation
                        JOINT LeftHandThumbEnd
                        {
                          OFFSET 3.180793 -4e-06 4e-06
                          CHANNELS 3 Zrotation Yrotation Xrotation
                        }
                      }
                    }
                  }
                  JOINT LeftHandIndex1
                  {
                    OFFSET 3.247555 -0.531998 2.296169
                    CHANNELS 3 Zrotation Yrotation Xrotation
                    JOINT LeftHandIndex2
                    {
                      OFFSET 6.364578 0.01206 0.1786
                      CHANNELS 3 Zrotation Yrotation Xrotation
                      JOINT LeftHandIndex3
                      {
                        OFFSET 3.662364 0.0 0.0
                        CHANNELS 3 Zrotation Yrotation Xrotation
                        JOINT LeftHandIndex4
                        {
                          OFFSET 2.329242 4e-06 4e-06
                          CHANNELS 3 Zrotation Yrotation Xrotation
                          JOINT LeftHandIndexEnd
                          {
                            OFFSET 2.759615 -0.180537 -0.113024
                            CHANNELS 3 Zrotation Yrotation Xrotation
                          }
                        }
                      }
                    }
                  }
                  JOINT LeftHandMiddle1
                  {
                    OFFSET 3.163495 0.240981 1.000332
                    CHANNELS 3 Zrotation Yrotation Xrotation
                    JOINT LeftHandMiddle2
                    {
                      OFFSET 6.19078 -0.259278 -1.002548
                      CHANNELS 3 Zrotation Yrotation Xrotation
                      JOINT LeftHandMiddle3
                      {
                        OFFSET 4.35652 -4e-06 -1e-06
                        CHANNELS 3 Zrotation Yrotation Xrotation
                        JOINT LeftHandMiddle4
                        {
                          OFFSET 2.996877 -8e-06 0.0
                          CHANNELS 3 Zrotation Yrotation Xrotation
                          JOINT LeftHandMiddleEnd
                          {
                            OFFSET 2.304287 -0.294569 -0.031741
                            CHANNELS 3 Zrotation Yrotation Xrotation
                          }
                        }
                      }
                    }
                  }
                  JOINT LeftHandRing1
                  {
                    OFFSET 2.882643 -0.053652 -0.322543
                    CHANNELS 3 Zrotation Yrotation Xrotation
                    JOINT LeftHandRing2
                    {
                      OFFSET 5.854541 -0.486202 -1.373841
                      CHANNELS 3 Zrotation Yrotation Xrotation
                      JOINT LeftHandRing3
                      {
                        OFFSET 4.350578 0.0 3e-06
                        CHANNELS 3 Zrotation Yrotation Xrotation
                        JOINT LeftHandRing4
                        {
                          OFFSET 2.651321 7e-06 2e-06
                          CHANNELS 3 Zrotation Yrotation Xrotation
                          JOINT LeftHandRingEnd
                          {
                            OFFSET 1.936105 0.077687 -7.1e-05
                            CHANNELS 3 Zrotation Yrotation Xrotation
                          }
                        }
                      }
                    }
                  }
                  JOINT LeftHandPinky1
                  {
                    OFFSET 2.8655 -0.310005 -1.600378
                    CHANNELS 3 Zrotation Yrotation Xrotation
                    JOINT LeftHandPinky2
                    {
                      OFFSET 5.087849 -1.331141 -1.77123
                      CHANNELS 3 Zrotation Yrotation Xrotation
                      JOINT LeftHandPinky3
                      {
                        OFFSET 3.070974 4e-06 0.0
                        CHANNELS 3 Zrotation Yrotation Xrotation
                        JOINT LeftHandPinky4
                        {
                          OFFSET 1.549672 0.0 1e-06
                          CHANNELS 3 Zrotation Yrotation Xrotation
                          JOINT LeftHandPinkyEnd
                          {
                            OFFSET 1.944893 -0.157802 0.057219
                            CHANNELS 3 Zrotation Yrotation Xrotation
                          }
                        }
                      }
                    }
                  }
                }
              }
            }
          }
          JOINT RightShoulder
          {
            OFFSET -1.380118 23.180309 5.214158
            CHANNELS 3 Zrotation Yrotation Xrotation
            JOINT RightArm
            {
              OFFSET -15.037196 1.2e-05 -5.545604
              CHANNELS 3 Zrotation Yrotation Xrotation
              JOINT RightForeArm
              {
                OFFSET -28.736639 2e-06 -0.002597
                CHANNELS 3 Zrotation Yrotation Xrotation
                JOINT RightHand
                {
                  OFFSET -27.133619 -0.0 0.002613
                  CHANNELS 3 Zrotation Yrotation Xrotation
                  JOINT RightHandThumb1
                  {
                    OFFSET -2.274032 -1.383988 3.163127
                    CHANNELS 3 Zrotation Yrotation Xrotation
                    JOINT RightHandThumb2
                    {
                      OFFSET -4.011429 -1.827466 1.640914
                      CHANNELS 3 Zrotation Yrotation Xrotation
                      JOINT RightHandThumb3
                      {
                        OFFSET -2.794935 -4e-06 -3e-06
                        CHANNELS 3 Zrotation Yrotation Xrotation
                        JOINT RightHandThumbEnd
                        {
                          OFFSET -3.183852 4e-06 1e-06
                          CHANNELS 3 Zrotation Yrotation Xrotation
                        }
                      }
                    }
                  }
                  JOINT RightHandIndex1
                  {
                    OFFSET -3.253266 -0.520057 2.282866
                    CHANNELS 3 Zrotation Yrotation Xrotation
                    JOINT RightHandIndex2
                    {
                      OFFSET -6.341917 0.012471 0.178266
                      CHANNELS 3 Zrotation Yrotation Xrotation
                      JOINT RightHandIndex3
                      {
                        OFFSET -3.654871 -8e-06 -0.0
                        CHANNELS 3 Zrotation Yrotation Xrotation
                        JOINT RightHandIndex4
                        {
                          OFFSET -2.327586 0.0 1e-06
                          CHANNELS 3 Zrotation Yrotation Xrotation
                          JOINT RightHandIndexEnd
                          {
                            OFFSET -2.76179 -0.180656 -0.113078
                            CHANNELS 3 Zrotation Yrotation Xrotation
                          }
                        }
                      }
                    }
                  }
                  JOINT RightHandMiddle1
                  {
                    OFFSET -3.168106 0.246593 1.00103
                    CHANNELS 3 Zrotation Yrotation Xrotation
                    JOINT RightHandMiddle2
                    {
                      OFFSET -6.180828 -0.258836 -1.000895
                      CHANNELS 3 Zrotation Yrotation Xrotation
                      JOINT RightHandMiddle3
                      {
                        OFFSET -4.348901 0.0 -0.0
                        CHANNELS 3 Zrotation Yrotation Xrotation
                        JOINT RightHandMiddle4
                        {
                          OFFSET -3.00024 -4e-06 -2e-06
                          CHANNELS 3 Zrotation Yrotation Xrotation
                          JOINT RightHandMiddleEnd
                          {
                            OFFSET -2.30252 -0.29437 -0.031706
                            CHANNELS 3 Zrotation Yrotation Xrotation
                          }
                        }
                      }
                    }
                  }
                  JOINT RightHandRing1
                  {
                    OFFSET -2.88569 -0.067952 -0.308858
                    CHANNELS 3 Zrotation Yrotation Xrotation
                    JOINT RightHandRing2
                    {
                      OFFSET -5.854198 -0.48613 -1.373731
                      CHANNELS 3 Zrotation Yrotation Xrotation
                      JOINT RightHandRing3
                      {
                        OFFSET -4.33881 -4e-06 -0.0
                        CHANNELS 3 Zrotation Yrotation Xrotation
                        JOINT RightHandRing4
                        {
                          OFFSET -2.654903 -4e-06 4e-06
                          CHANNELS 3 Zrotation Yrotation Xrotation
                          JOINT RightHandRingEnd
                          {
                            OFFSET -1.933568 0.077527 -5.2e-05
                            CHANNELS 3 Zrotation Yrotation Xrotation
                          }
                        }
                      }
                    }
                  }
                  JOINT RightHandPinky1
                  {
                    OFFSET -2.866425 -0.342796 -1.584145
                    CHANNELS 3 Zrotation Yrotation Xrotation
                    JOINT RightHandPinky2
                    {
                      OFFSET -5.091371 -1.332055 -1.772385
                      CHANNELS 3 Zrotation Yrotation Xrotation
                      JOINT RightHandPinky3
                      {
                        OFFSET -3.062664 -4e-06 1e-06
                        CHANNELS 3 Zrotation Yrotation Xrotation
                        JOINT RightHandPinky4
                        {
                          OFFSET -1.546529 4e-06 -2e-06
                          CHANNELS 3 Zrotation Yrotation Xrotation
                          JOINT RightHandPinkyEnd
                          {
                            OFFSET -1.945119 -0.157718 0.057211
                            CHANNELS 3 Zrotation Yrotation Xrotation
                          }
                        }
                      }
                    }
                  }
                }
              }
            }
          }
        }
      }
    }
    JOINT LeftLeg
    {
      OFFSET 10.043214 -8.434526 2.595655
      CHANNELS 3 Zrotation Yrotation Xrotation
      JOINT LeftShin
      {
        OFFSET -1e-06 -43.221752 -0.802913
        CHANNELS 3 Zrotation Yrotation Xrotation
        JOINT LeftFoot
        {
          OFFSET 1e-06 -42.155094 -3.481523
          CHANNELS 3 Zrotation Yrotation Xrotation
          JOINT LeftToeBase
          {
            OFFSET 0.0 -5.059472 13.231529
            CHANNELS 3 Zrotation Yrotation Xrotation
            JOINT LeftToeEnd
            {
              OFFSET -0.009607 -1.647619 6.513017
              CHANNELS 3 Zrotation Yrotation Xrotation
            }
          }
        }
      }
    }
    JOINT RightLeg
    {
      OFFSET -10.047278 -8.29526 2.620317
      CHANNELS 3 Zrotation Yrotation Xrotation
      JOINT RightShin
      {
        OFFSET 1e-06 -43.362206 -0.805556
        CHANNELS 3 Zrotation Yrotation Xrotation
        JOINT RightFoot
        {
          OFFSET 2e-06 -42.117393 -3.478398
          CHANNELS 3 Zrotation Yrotation Xrotation
          JOINT RightToeBase
          {
            OFFSET -0.0 -5.079609 13.284196
            CHANNELS 3 Zrotation Yrotation Xrotation
            JOINT RightToeEnd
            {
              OFFSET 0.009532 -1.634378 6.460591
              CHANNELS 3 Zrotation Yrotation Xrotation
            }
          }
        }
      }
    }
  }
}
MOTION
Frames: 4
Frame Time: 0.03333333333333333
0.0 0.0 0.0 0.0 -0.0 0.0 7.388535 96.641716 244.86554 -4.836199 -6.299221 -5.767463 3.410021 0.571753 0.540962 0.818552 2.304878 -4.629 4.446445 0.370091 12.01849 -8.088157 6.971277 10.76307 -0.706833 -0.199976 -3.671421 0.582211 -1.099949 -11.342866 7.7e-05 -2.3e-05 6e-06 0.024443 0.037379 0.052477 0.668973 -3.711157 -10.613108 -0.632311 3.793246 -10.627826 -27.553156 3.409895 13.976771 -53.12928 8.604409 3.460583 0.099446 -24.436344 0.12524 4.031682 5.903923 -10.38936 -5.882106 9.861284 0.70259 -10.936872 -0.360576 7.156206 0.0 8.774825 -1e-06 -16.207788 17.747694 5.995444 -1.844032 2.498505 -2.507278 -10.163599 4.678945 4.621109 -20.976021 -3e-06 2e-06 -21.226286 2.451696 -3.593999 -1e-06 -6e-06 0.0 -1.362682 2.240798 -0.746323 -21.334917 0.58491 3.008323 -13.821215 -2e-06 2e-06 -23.887173 -0.249078 -0.839483 -60.449162 2.13386 -1.159801 -0.294025 1.679687 0.833256 -14.218209 0.093215 1.300581 -34.212051 -0.287563 0.96717 -20.033211 0.964537 1.212843 -1e-06 -0.0 0.0 -3.440387 0.788233 0.501656 -15.928185 -3.167309 2.999707 -6.338826 -1e-06 1e-06 -18.123446 3.648182 -4.90567 -4e-06 -0.0 -2e-06 8.542683 15.617127 14.454169 60.909962 17.302025 5.011582 -0.472072 41.353352 -0.405992 -7.761239 2.179836 0.139006 2.243542 -5.255035 -3.180158 14.282893 -0.826595 6.952505 -4e-06 -12.690601 1e-06 15.707185 -17.723946 2.949325 1.665665 -1.955921 -2.878299 4.727798 -4.170584 4.993925 11.020528 3e-06 -1e-06 12.109053 -3.735713 -2.866781 1e-06 1e-06 1e-06 1.291986 -1.928552 -1.49809 14.800132 0.567469 3.865609 14.242577 -1.341733 -6.660657 19.631971 0.143926 -0.648245 49.743061 -0.850711 -6.154168 0.353029 -1.511152 -0.031941 20.222797 3.684312 2.316633 18.787273 5e-06 1e-06 10.751631 -0.479866 1.397908 0.0 2e-06 -2e-06 3.273806 0.305948 -0.580111 21.486818 11.830372 2.266135 8.162928 1e-06 1e-06 18.399088 -3.798982 -4.940574 1e-06 0.0 -2e-06 0.552171 10.020875 -19.674175 0.06274 0.471586 2.928038 -2.102834 9.163601 6.038986 1.647306 -2.059254 -3.691079 0.0 -0.0 3e-06 10.036777 1.914096 16.384632 -0.078121 -0.271376 5.875342 -4.025234 0.966908 -13.096015 -1.486981 0.981597 -0.354713 -0.0 0.0 -1e-06 
0.0 0.0 0.0 0.0 -0.0 0.0 7.669083 96.570625 248.54422 -3.08829 -6.361629 -5.319088 2.184331 0.700018 -0.224169 0.649391 2.409665 -4.927781 3.962118 0.403926 12.180961 -8.000804 6.968981 10.392904 -0.667047 -0.06769 -3.716443 0.640486 -1.151487 -11.008384 7.7e-05 -2.3e-05 6e-06 0.040374 0.019201 0.045823 0.680295 -3.732095 -10.616101 -0.611137 3.777294 -10.6359 -28.891691 3.538692 13.552249 -51.623497 9.355584 3.58495 0.090812 -23.839184 0.141012 4.216477 6.223115 -9.599227 -5.882104 9.861284 0.702593 -10.936872 -0.360576 7.156205 1e-06 8.774824 -1e-06 -16.14455 17.865469 6.084943 -1.844031 2.498504 -2.507276 -10.163599 4.678944 4.621109 -20.976023 -2e-06 6e-06 -21.226284 2.4517 -3.593996 -2e-06 -6e-06 0.0 -1.362681 2.240798 -0.746323 -21.334913 0.58491 3.008326 -13.821213 -2e-06 5e-06 -23.887167 -0.249076 -0.839479 -60.260429 2.226346 -1.166479 -0.294024 1.679688 0.833256 -14.218207 0.093214 1.300583 -34.212048 -0.287561 0.967176 -20.033211 0.964539 1.212845 -1e-06 0.0 0.0 -3.440389 0.788233 0.501656 -15.928185 -3.167309 2.999709 -6.338826 -1e-06 2e-06 -18.123444 3.648185 -4.905666 -4e-06 -0.0 -2e-06 10.072238 15.381834 14.715505 60.083664 16.691788 4.280117 -0.65613 40.816757 -0.426166 -8.443174 2.336209 -0.849666 2.243544 -5.255038 -3.180157 14.282887 -0.826594 6.952497 -2e-06 -12.690605 1e-06 15.602864 -17.696405 3.026116 1.665667 -1.955921 -2.878299 4.727798 -4.170589 4.993923 11.020526 3e-06 -4e-06 12.109052 -3.735716 -2.866788 -0.0 0.0 1e-06 1.291985 -1.928549 -1.49809 14.800125 0.567468 3.865602 14.242571 -1.341734 -6.66066 19.631968 0.143928 -0.648249 49.786095 -0.77876 -6.087431 0.353028 -1.511151 -0.031941 20.222786 3.684309 2.316625 18.78727 5e-06 -5e-06 10.751625 -0.479866 1.397904 0.0 2e-06 -1e-06 3.273805 0.305948 -0.580112 21.486809 11.830373 2.266126 8.162924 2e-06 -3e-06 18.399076 -3.798982 -4.940579 1e-06 -0.0 -2e-06 -1.551995 9.710284 -19.347475 0.115026 0.452583 4.712797 1.205586 9.340467 10.507295 1.717779 -2.014364 -3.377249 0.0 0.0 2e-06 7.344438 1.116865 17.41226 -0.095149 -0.170748 7.701486 -3.377856 1.960892 -13.33506 -1.492243 1.036221 -1.38668 0.0 0.0 -1e-06 
0.0 0.0 0.0 0.0 -0.0 0.0 7.958632 96.74929 252.321808 -1.08745 -5.885374 -5.040826 0.932723 0.693027 -0.898778 0.419053 2.436469 -5.269508 3.138442 0.434013 12.247157 -7.692825 6.726233 10.23163 -0.657686 -0.028135 -3.730113 0.782956 -1.224696 -10.709188 7.7e-05 -2.2e-05 6e-06 0.055132 -0.001042 0.044594 0.690091 -3.752714 -10.597034 -0.590692 3.758377 -10.628678 -29.564566 3.382066 13.434766 -50.597874 9.480515 4.419631 0.138611 -23.099098 0.176518 4.059415 6.691718 -8.28052 -5.882108 9.861292 0.702592 -10.936877 -0.360576 7.156209 0.0 8.774833 -2e-06 -16.129894 17.926418 6.125492 -1.844033 2.498505 -2.507278 -10.163604 4.678948 4.62111 -20.976034 -3e-06 4e-06 -21.226295 2.451699 -3.594 -1e-06 -7e-06 0.0 -1.362682 2.240799 -0.746323 -21.334925 0.584909 3.008326 -13.821221 -3e-06 3e-06 -23.887184 -0.249078 -0.839481 -60.089306 2.32348 -1.220804 -0.294024 1.679688 0.833256 -14.218215 0.093215 1.300582 -34.212067 -0.287563 0.967174 -20.033226 0.964537 1.212845 -1e-06 -0.0 0.0 -3.44039 0.788233 0.501656 -15.928192 -3.167312 2.999709 -6.338829 -1e-06 1e-06 -18.123457 3.648187 -4.905672 -3e-06 0.0 -2e-06 11.391016 14.865748 15.055041 60.204697 15.682137 3.008668 -0.600096 39.412647 -0.338026 -9.512634 2.501778 -2.076723 2.243543 -5.255043 -3.180159 14.2829 -0.826596 6.952505 -2e-06 -12.690617 1e-06 15.537245 -17.693087 3.078402 1.665668 -1.955925 -2.878301 4.727801 -4.170591 4.993927 11.020535 3e-06 -3e-06 12.10906 -3.735719 -2.86679 -1e-06 1e-06 0.0 1.291986 -1.92855 -1.498091 14.800136 0.567468 3.865609 14.242584 -1.341736 -6.660665 19.631983 0.143927 -0.648248 49.867264 -0.745984 -6.024961 0.353029 -1.511152 -0.03194 20.222803 3.684312 2.316628 18.787287 4e-06 -5e-06 10.751634 -0.479866 1.397906 -0.0 1e-06 -0.0 3.273809 0.305947 -0.580112 21.486828 11.830383 2.26613 8.162931 1e-06 -3e-06 18.399097 -3.798989 -4.940582 3e-06 0.0 -2e-06 -3.917233 8.979641 -18.199171 0.153976 0.394169 5.153909 3.729034 8.735865 14.151864 1.756827 -1.995704 -2.631887 0.0 0.0 2e-06 4.091937 -0.258697 19.540352 -0.143466 -0.10194 8.909459 -2.092448 2.846446 -10.383863 -1.514323 1.085836 -4.01815 0.0 0.0 -1e-06 
0.0 0.0 0.0 0.0 -0.0 0.0 8.197947 97.057457 256.006226 0.928158 -4.782177 -5.084091 -0.198386 0.601906 -1.298023 0.15001 2.387943 -5.408955 1.960656 0.431057 12.029214 -6.836065 6.506863 10.42256 -0.764549 -0.286294 -3.787229 0.963293 -1.504261 -10.441383 7.7e-05 -2.3e-05 6e-06 0.055345 -0.010732 0.060325 0.694792 -3.745524 -10.555117 -0.595329 3.730945 -10.575723 -29.05401 2.990976 13.68311 -50.579044 8.900484 5.446299 0.118916 -22.837294 0.109938 3.715855 7.046875 -5.979347 -5.882105 9.861288 0.702591 -10.936871 -0.360574 7.156206 0.0 8.774826 0.0 -16.369373 17.969959 6.068024 -1.844033 2.498504 -2.507278 -10.1636 4.678945 4.621109 -20.976023 -4e-06 2e-06 -21.226286 2.451698 -3.594 -0.0 -7e-06 0.0 -1.362682 2.240799 -0.746323 -21.334913 0.584909 3.008323 -13.821213 -3e-06 2e-06 -23.887169 -0.249078 -0.839482 -60.385029 2.368876 -1.293489 -0.294025 1.679688 0.833256 -14.218208 0.093215 1.300581 -34.212048 -0.287564 0.967172 -20.033215 0.964538 1.212844 -1e-06 0.0 -0.0 -3.440389 0.788233 0.501656 -15.928185 -3.16731 2.999707 -6.338826 -1e-06 1e-06 -18.123446 3.648184 -4.905671 -3e-06 0.0 -2e-06 12.261651 14.170236 15.674405 61.246117 14.616717 1.517529 -0.440069 37.03252 -0.213947 -10.392054 2.401093 -3.853404 2.243542 -5.255038 -3.180157 14.282887 -0.826595 6.952502 -2e-06 -12.690601 -1e-06 15.722732 -17.505159 2.993556 1.665665 -1.95592 -2.878297 4.727799 -4.170587 4.993924 11.020523 1e-06 -0.0 12.109049 -3.735714 -2.866783 -1e-06 0.0 -1e-06 1.291986 -1.92855 -1.49809 14.800125 0.567465 3.865608 14.242569 -1.341736 -6.660657 19.631962 0.143922 -0.648244 50.018055 -0.649116 -5.872085 0.353029 -1.51115 -0.03194 20.222786 3.684305 2.316632 18.78727 3e-06 -1e-06 10.751625 -0.479869 1.397906 -0.0 2e-06 0.0 3.273806 0.305948 -0.58011 21.486809 11.830371 2.266133 8.162926 1e-06 -1e-06 18.399086 -3.798988 -4.940574 2e-06 -0.0 -0.0 -6.236032 8.07404 -16.06498 0.071383 0.347031 4.870699 5.153227 8.327765 15.187834 1.724737 -1.88762 -1.249905 -0.0 -0.0 2e-06 0.315758 -1.920802 19.395872 -0.084298 -0.139802 14.077185 -0.60745 4.300574 -5.516206 -1.529432 0.957888 -9.884483 0.0 -0.0 -1e-06 
